Coordinates
version=1
nRows=16
nColumns=40
inDegrees=yes

Units are S.I. units (second, meters, Newtons, ...)
Angles are in degrees.

endheader
time	pelvis_tilt	pelvis_list	pelvis_rotation	pelvis_tx	pelvis_ty	pelvis_tz	hip_flexion_r	hip_adduction_r	hip_rotation_r	knee_angle_r	knee_angle_r_beta	ankle_angle_r	subtalar_angle_r	mtp_angle_r	hip_flexion_l	hip_adduction_l	hip_rotation_l	knee_angle_l	knee_angle_l_beta	ankle_angle_l	subtalar_angle_l	mtp_angle_l	lumbar_extension	lumbar_bending	lumbar_rotation	arm_flex_r	arm_add_r	arm_rot_r	elbow_flex_r	pro_sup_r	wrist_flex_r	wrist_dev_r	arm_flex_l	arm_add_l	arm_rot_l	elbow_flex_l	pro_sup_l	wrist_flex_l	wrist_dev_l
      0.00000000	     -1.50706712	      0.05276620	      3.49139782	     -0.90522521	      0.88889923	      1.48853370	     19.66190151	     -6.51341396	    -12.25594340	    -58.70649339	     -1.02462160	      4.77801910	    -18.39606958	     23.05963651	     15.74425065	     -0.12335947	     13.56774170	    -28.69182741	     -0.50076686	     11.58582411	     12.94545083	     -0.76408067	     -4.15501546	     -0.68663591	     -8.18390253	     -3.51248740	     -6.28152439	    -17.55930339	     24.14247712	     89.95437384	      0.00000000	      0.00000000	      1.91309810	     10.36834421	     19.76039422	     31.86675727	     89.95437384	      0.00000000	      0.00000000
      0.01000000	     -1.63944885	      0.02959269	      3.76536334	     -0.89988141	      0.88902724	      1.48757408	     20.65658354	     -6.38878348	    -12.27391133	    -57.73887518	     -1.00773348	      5.15826164	    -18.33832432	     22.69645168	     15.46056164	     -0.18050441	     13.55231465	    -28.57531154	     -0.49873327	     11.64465468	     12.75296834	     -0.75313143	     -4.12982614	     -0.69073280	     -8.37596619	     -3.80433825	     -6.25900695	    -17.52744164	     24.12462513	     89.95437384	      0.00000000	      0.00000000	      2.36537526	     10.44415275	     19.68750507	     32.47039233	     89.95437384	      0.00000000	      0.00000000
      0.02000000	     -1.75937029	     -0.06666512	      4.03547620	     -0.89459852	      0.88903477	      1.48666233	     21.57836291	     -6.15890593	    -12.33283815	    -56.63630429	     -0.98848999	      5.56035462	    -18.26077929	     22.36042871	     15.15885782	     -0.17624730	     13.45086223	    -28.40864720	     -0.49582443	     11.76649936	     12.58936237	     -0.74530578	     -4.02805107	     -0.67143957	     -8.54880240	     -4.06561422	     -6.24273057	    -17.48187763	     24.05393936	     89.95437384	      0.00000000	      0.00000000	      2.82074532	     10.52285982	     19.56020682	     33.04588542	     89.95437384	      0.00000000	      0.00000000
      0.03000000	     -1.54052660	     -0.49469166	      4.39539320	     -0.88903117	      0.88955938	      1.48609622	     21.89932547	     -5.42579861	    -12.41571143	    -55.09697672	     -0.96162365	      6.29881288	    -18.20478649	     22.20000582	     14.47411918	      0.15084312	     12.77328912	    -28.22965318	     -0.49270039	     12.21029706	     12.63870119	     -0.74637604	     -4.32873051	     -0.25861008	     -8.83894629	     -4.11455053	     -6.20859158	    -17.59982446	     23.74642265	     89.95437384	      0.00000000	      0.00000000	      3.15027665	     10.65393195	     19.28970838	     33.90438925	     89.95437384	      0.00000000	      0.00000000
      0.04000000	     -1.73745116	     -0.44986275	      4.56504074	     -0.88356415	      0.88932313	      1.48523811	     22.80998935	     -5.45498262	    -12.58918362	    -53.75893851	     -0.93827048	      6.54524715	    -17.99504583	     21.88367658	     14.24700344	      0.05976087	     12.97197465	    -28.08399063	     -0.49015810	     12.23356326	     12.46328143	     -0.73037953	     -4.16971049	     -0.36227591	     -8.92675253	     -4.39257336	     -6.22516930	    -17.53690492	     23.73762146	     89.95437384	      0.00000000	      0.00000000	      3.58475936	     10.71656527	     19.15456419	     34.47756300	     89.95437384	      0.00000000	      0.00000000
      0.05000000	     -1.78612515	     -0.63671155	      4.80262225	     -0.87808396	      0.88927958	      1.48460300	     23.40570415	     -5.05848730	    -12.57833179	    -52.07782299	     -0.90892948	      7.04968172	    -17.93017383	     21.67200613	     13.82508303	      0.16838198	     12.79470299	    -27.81758720	     -0.48550849	     12.41232941	     12.40763161	     -0.72470495	     -4.17645396	     -0.20453896	     -9.13736928	     -4.49007654	     -6.22895494	    -17.52788378	     23.53579460	     89.95437384	      0.00000000	      0.00000000	      3.94349692	     10.84004072	     18.85610226	     35.13461217	     89.95437384	      0.00000000	      0.00000000
      0.06000000	     -1.51642316	     -0.95881703	      5.05904164	     -0.87239490	      0.88969864	      1.48411602	     23.53974538	     -4.59026006	    -12.97081152	    -50.11874671	     -0.87473715	      7.43757924	    -17.83732738	     21.58868616	     13.08948472	      0.50302942	     12.59604792	    -27.68216022	     -0.48314484	     12.79545741	     12.38765751	     -0.73270115	     -4.54429866	      0.12437480	     -9.30728828	     -4.53016987	     -6.24438801	    -17.65452841	     23.31289487	     89.95437384	      0.00000000	      0.00000000	      4.30063029	     11.00618424	     18.39092651	     35.91603646	     89.95437384	      0.00000000	      0.00000000
      0.07000000	     -1.74765591	     -0.80180567	      5.14184099	     -0.86686299	      0.88916406	      1.48331208	     24.38375273	     -4.81474496	    -13.27927300	    -48.43008197	     -0.84526439	      7.68375470	    -17.61507167	     21.30495747	     12.92408656	      0.30697241	     12.78159407	    -27.68865276	     -0.48325816	     12.86881476	     12.17618921	     -0.73439917	     -4.37378301	     -0.08933773	     -9.27518354	     -4.77809933	     -6.29858435	    -17.59487123	     23.28453707	     89.95437384	      0.00000000	      0.00000000	      4.73907919	     11.02982915	     18.23198933	     36.51621133	     89.95437384	      0.00000000	      0.00000000
      0.08000000	     -1.41994400	     -1.20577750	      5.51710936	     -0.86106061	      0.88961200	      1.48290792	     24.25197727	     -4.26062379	    -13.82835187	    -46.08863731	     -0.80439847	      7.80323582	    -17.66249724	     21.41691472	     12.16912789	      0.75683179	     12.44292436	    -27.59808497	     -0.48167745	     13.20487021	     11.91483106	     -0.75952047	     -4.78511048	      0.33366399	     -9.62198956	     -4.72782077	     -6.28233187	    -17.79325771	     23.02466067	     89.95437384	      0.00000000	      0.00000000	      5.04673505	     11.23685629	     17.73868380	     37.27405187	     89.95437384	      0.00000000	      0.00000000
      0.09000000	     -1.54866147	     -1.21855355	      5.65927774	     -0.85536646	      0.88919274	      1.48240137	     24.81778229	     -4.21445504	    -14.13352374	    -44.18413580	     -0.77115865	      8.03311557	    -17.51611673	     21.28267944	     11.84669230	      0.73919961	     12.33913372	    -27.49758581	     -0.47992341	     13.49654496	     11.69510354	     -0.79809868	     -4.69732286	      0.30606640	     -9.72628515	     -4.79370025	     -6.31313051	    -17.83969536	     22.78394346	     89.95437384	      0.00000000	      0.00000000	      5.34391011	     11.34969933	     17.43504065	     37.97805320	     89.95437384	      0.00000000	      0.00000000
      0.10000000	     -1.80283818	     -1.04511451	      5.68249417	     -0.84966640	      0.88852834	      1.48190499	     25.59948592	     -4.48927751	    -14.61710563	    -42.41351468	     -0.74025548	      8.13415626	    -17.29177431	     21.10308121	     11.65557557	      0.55301042	     12.59189988	    -27.44070797	     -0.47893070	     13.70960367	     11.57477942	     -0.81595443	     -4.48666407	      0.08065309	     -9.70702091	     -4.95356116	     -6.35660073	    -17.83733528	     22.70317216	     89.95437384	      0.00000000	      0.00000000	      5.69065710	     11.40249516	     17.25904895	     38.55823625	     89.95437384	      0.00000000	      0.00000000
      0.11000000	     -1.58018448	     -1.51309052	      6.20161635	     -0.84397363	      0.88866676	      1.48149415	     25.44801835	     -3.95053794	    -15.31337271	    -39.87790140	     -0.69600068	      7.79681880	    -17.15864811	     21.12878168	     11.11897888	      1.05367611	     11.97270579	    -27.49703833	     -0.47991385	     14.18379905	     11.47353253	     -0.89030283	     -4.79877258	      0.59607756	    -10.25837522	     -4.75305847	     -6.32476039	    -18.24770898	     22.34727402	     89.95437384	      0.00000000	      0.00000000	      5.85929699	     11.63785003	     16.77618191	     39.46989289	     89.95437384	      0.00000000	      0.00000000
      0.12000000	     -1.86551805	     -1.44623337	      6.36398822	     -0.83840069	      0.88788933	      1.48105106	     26.10900787	     -4.07901167	    -15.69185126	    -37.87058618	     -0.66096642	      7.61304361	    -16.68740658	     20.92359922	     11.03772208	      0.95425326	     11.94623998	    -27.49731731	     -0.47991872	     14.34592791	     11.25845245	     -0.92723710	     -4.54199343	      0.47684304	    -10.42193155	     -4.83750307	     -6.33872135	    -18.36292465	     22.26168907	     89.95437384	      0.00000000	      0.00000000	      6.14888215	     11.74822429	     16.52504279	     40.03505579	     89.95437384	      0.00000000	      0.00000000
      0.13000000	     -1.88818809	     -1.82026710	      6.77220490	     -0.83276445	      0.88747693	      1.48068430	     26.29270575	     -3.77430361	    -16.60572593	    -35.51854743	     -0.61991560	      7.05295534	    -16.40170365	     20.79788526	     10.87547961	      1.35352281	     11.49561781	    -27.78536878	     -0.48494617	     14.81493566	     11.22914321	     -1.05422180	     -4.56052769	      0.88825524	    -10.75934357	     -4.75002761	     -6.31790291	    -18.93977706	     21.97219177	     89.95437384	      0.00000000	      0.00000000	      6.43074193	     11.87207690	     16.11945546	     40.69727067	     89.95437384	      0.00000000	      0.00000000
      0.14000000	     -2.12105119	     -1.99363779	      7.01964562	     -0.82713687	      0.88664395	      1.48037049	     26.77067225	     -3.66079663	    -17.18531620	    -33.37350226	     -0.58247750	      6.72714123	    -15.75610646	     20.46148128	     10.90003519	      1.53087469	     11.23994624	    -28.05835893	     -0.48971075	     15.15884428	     11.13307641	     -1.14393217	     -4.35445113	      1.05703009	    -10.97571386	     -4.73820691	     -6.32627736	    -19.33626026	     21.80082205	     89.95437384	      0.00000000	      0.00000000	      6.65489262	     11.98130918	     15.75396983	     41.36761856	     89.95437384	      0.00000000	      0.00000000
      0.15000000	     -2.47196473	     -1.81578120	      7.05501522	     -0.82131507	      0.88556427	      1.48008085	     27.49863706	     -3.93902327	    -17.62501540	    -31.61276854	     -0.55174690	      6.77282371	    -15.21769245	     20.19350237	     10.90176165	      1.32695381	     11.31190690	    -28.16396098	     -0.49155385	     15.30097787	     11.02147246	     -1.16563040	     -4.03286516	      0.83849396	    -10.98532908	     -4.88228481	     -6.38360964	    -19.43964654	     21.80643958	     89.95437384	      0.00000000	      0.00000000	      6.87666822	     12.04194478	     15.57865387	     41.92883367	     89.95437384	      0.00000000	      0.00000000
